<?xml version="1.0" standalone="no"?><!DOCTYPE svg PUBLIC "-//W3C//DTD SVG 1.1//EN" "http://www.w3.org/Graphics/SVG/1.1/DTD/svg11.dtd"><svg t="1682919536766" class="icon" viewBox="0 0 1024 1024" version="1.1" xmlns="http://www.w3.org/2000/svg" p-id="2849" xmlns:xlink="http://www.w3.org/1999/xlink" width="200" height="200"><path d="M825.6 176h-44.8v-44.8c0-24.6-20.2-44.8-44.8-44.8H601.6c-24.6 0-44.8 20.2-44.8 44.8V176H198.4C124.5 176 64 236.5 64 310.4v403.2C64 787.5 124.5 848 198.4 848h134.7c40.9 54.3 105.7 89.6 178.9 89.6s138-35.3 178.9-89.6h134.7c73.9 0 134.4-60.5 134.4-134.4V310.4c0-73.9-60.5-134.4-134.4-134.4z m-224-44.8H736V176H601.6v-44.8zM512 892.8c-98.8 0-179.2-80.4-179.2-179.2 0-98.8 80.4-179.2 179.2-179.2s179.2 80.4 179.2 179.2c0 98.8-80.4 179.2-179.2 179.2z m403.2-179.2c0 49.4-40.2 89.6-89.6 89.6H717.2c12-27.5 18.8-57.7 18.8-89.6 0-123.7-100.3-224-224-224s-224 100.3-224 224c0 31.9 6.8 62.1 18.8 89.6H198.4c-49.4 0-89.6-40.2-89.6-89.6V355.2h582.4c12.4 0 22.4-10 22.4-22.4 0-12.4-10-22.4-22.4-22.4H108.8c0-49.4 40.2-89.6 89.6-89.6H825.6c49.4 0 89.6 40.2 89.6 89.6H780.8c-12.4 0-22.4 10-22.4 22.4 0 12.4 10 22.4 22.4 22.4h134.4v358.4z" p-id="2850" fill="#bfbfbf"></path><path d="M512 713.6m-67.2 0a67.2 67.2 0 1 0 134.4 0 67.2 67.2 0 1 0-134.4 0Z" p-id="2851" fill="#bfbfbf"></path><path d="M635 659.8c-0.6-1.3-1.3-2.5-2.3-3.4-3.8-3.8-11.1-4.9-16 0.1-3.2 3.2-4.2 8-2.4 11.9 21.9 49.6 6.1 106.1-38.5 137.4-36.8 25.8-86.6 26.7-124.1 2.3-6.9-4.5-13.2-9.6-18.9-15.3-43.7-43.7-43.7-114.7 0-158.4 32.4-32.4 82.4-41.6 124.4-23 4 1.7 8.8 0.7 12-2.5 4.9-4.9 3.8-12.2 0-16-1-1-2.2-1.8-3.5-2.4-51-22.3-109.4-11.3-148.7 28-52.4 52.4-52.4 137.7 0 190.1l1.7 1.6c25.6 24.7 59.8 37.8 96.6 36.9 36.8-0.9 70.5-15.7 94.9-41.7 36.6-39.1 46.4-96.3 24.8-145.6z" p-id="2852" fill="#bfbfbf"></path></svg>